<?xml version="1.0" encoding="utf-8"?>
<svg viewBox="99.205 225.38 301.59 48.37" xmlns="http://www.w3.org/2000/svg">
  <path d="M 120.155 225.38 C 137.069 225.38 145.525 233.444 145.525 249.57 C 145.525 265.69 137.069 273.75 120.155 273.75 L 99.205 273.75 L 99.205 225.38 Z M 180.185 273.75 L 178.145 266.93 L 161.195 266.93 L 159.165 273.75 L 143.275 273.75 L 160.915 225.38 L 178.985 225.38 L 196.635 273.75 Z M 164.435 256.11 L 174.905 256.11 L 169.845 238.88 L 169.565 238.88 Z M 229.195 225.38 C 232.195 225.38 234.865 226.074 237.205 227.46 C 239.552 228.84 241.382 230.737 242.695 233.15 C 244.009 235.564 244.665 238.27 244.665 241.27 L 244.665 242.19 C 244.665 245.19 244.009 247.907 242.695 250.34 C 241.382 252.78 239.552 254.69 237.205 256.07 C 234.865 257.45 232.195 258.14 229.195 258.14 L 217.595 258.14 L 217.595 273.75 L 202.055 273.75 L 202.055 225.38 Z M 217.595 246.83 L 223.995 246.83 C 225.635 246.83 226.865 246.407 227.685 245.56 C 228.505 244.72 228.915 243.574 228.915 242.12 L 228.915 241.55 C 228.915 240.05 228.505 238.89 227.685 238.07 C 226.865 237.25 225.635 236.84 223.995 236.84 L 217.595 236.84 Z M 281.325 237.76 L 281.325 273.75 L 265.785 273.75 L 265.785 237.76 L 249.905 237.76 L 249.905 225.38 L 297.145 225.38 L 297.145 237.76 Z M 302.055 225.38 L 343.885 225.38 L 343.885 236.98 L 317.595 236.98 L 317.595 243.66 L 340.095 243.66 L 340.095 254.77 L 317.595 254.77 L 317.595 262.15 L 344.375 262.15 L 344.375 273.75 L 302.055 273.75 Z M 399.395 240.22 C 399.395 243.174 398.599 245.844 397.005 248.23 C 395.412 250.624 393.092 252.38 390.045 253.5 L 400.795 273.75 L 383.365 273.75 L 374.785 256.11 L 369.025 256.11 L 369.025 273.75 L 353.485 273.75 L 353.485 225.38 L 383.085 225.38 C 386.552 225.38 389.515 226.05 391.975 227.39 C 394.435 228.724 396.285 230.527 397.525 232.8 C 398.772 235.074 399.395 237.547 399.395 240.22 Z M 383.575 240.85 C 383.575 239.584 383.152 238.53 382.305 237.69 C 381.465 236.844 380.435 236.42 379.215 236.42 L 369.025 236.42 L 369.025 245.35 L 379.215 245.35 C 380.435 245.35 381.465 244.917 382.305 244.05 C 383.152 243.184 383.575 242.117 383.575 240.85 Z M 106.625 255.168 C 106.625 256.2 107.466 257.035 108.505 257.035 L 114.148 257.035 L 114.148 253.299 L 108.505 253.299 C 107.466 253.299 106.625 254.132 106.625 255.168 Z M 106.625 243.961 C 106.625 244.993 107.466 245.829 108.505 245.829 L 114.148 245.829 L 114.148 242.093 L 108.505 242.093 C 107.466 242.093 106.625 242.927 106.625 243.961 Z M 116.028 258.903 C 116.028 259.935 116.871 260.77 117.909 260.77 C 118.949 260.77 119.789 259.935 119.789 258.903 L 121.671 258.903 C 126.221 258.903 130.017 255.692 130.888 251.432 L 134.837 251.432 C 135.876 251.432 136.717 250.596 136.717 249.564 C 136.717 248.531 135.876 247.695 134.837 247.695 L 130.888 247.695 C 130.017 243.435 126.221 240.225 121.671 240.225 L 119.789 240.225 C 119.789 239.192 118.949 238.358 117.909 238.358 C 116.871 238.358 116.028 239.192 116.028 240.225 Z" style="" transform="matrix(1, 0, 0, 1, 0, 1.4210854715202004e-14)"/>
</svg>