<?xml version="1.0" encoding="utf-8"?>
<svg viewBox="98.073 169.781 301.59 48.37" xmlns="http://www.w3.org/2000/svg">
  <path d="M 119.023 169.781 C 135.937 169.781 144.393 177.845 144.393 193.971 C 144.393 210.091 135.937 218.151 119.023 218.151 L 98.073 218.151 L 98.073 169.781 L 119.023 169.781 Z M 179.053 218.151 L 177.013 211.331 L 160.063 211.331 L 158.033 218.151 L 142.143 218.151 L 159.783 169.781 L 177.853 169.781 L 195.503 218.151 L 179.053 218.151 Z M 163.303 200.511 L 173.773 200.511 L 168.713 183.281 L 168.433 183.281 L 163.303 200.511 Z M 228.063 169.781 C 231.063 169.781 233.733 170.475 236.073 171.861 C 238.42 173.241 240.25 175.138 241.563 177.551 C 242.877 179.965 243.533 182.671 243.533 185.671 L 243.533 186.591 C 243.533 189.591 242.877 192.308 241.563 194.741 C 240.25 197.181 238.42 199.091 236.073 200.471 C 233.733 201.851 231.063 202.541 228.063 202.541 L 216.463 202.541 L 216.463 218.151 L 200.923 218.151 L 200.923 169.781 L 228.063 169.781 Z M 216.463 191.231 L 222.863 191.231 C 224.503 191.231 225.733 190.808 226.553 189.961 C 227.373 189.121 227.783 187.975 227.783 186.521 L 227.783 185.951 C 227.783 184.451 227.373 183.291 226.553 182.471 C 225.733 181.651 224.503 181.241 222.863 181.241 L 216.463 181.241 L 216.463 191.231 Z M 280.193 182.161 L 280.193 218.151 L 264.653 218.151 L 264.653 182.161 L 248.773 182.161 L 248.773 169.781 L 296.013 169.781 L 296.013 182.161 L 280.193 182.161 Z M 300.923 169.781 L 342.753 169.781 L 342.753 181.381 L 316.463 181.381 L 316.463 188.061 L 338.963 188.061 L 338.963 199.171 L 316.463 199.171 L 316.463 206.551 L 343.243 206.551 L 343.243 218.151 L 300.923 218.151 L 300.923 169.781 Z M 398.263 184.621 C 398.263 187.575 397.467 190.245 395.873 192.631 C 394.28 195.025 391.96 196.781 388.913 197.901 L 399.663 218.151 L 382.233 218.151 L 373.653 200.511 L 367.893 200.511 L 367.893 218.151 L 352.353 218.151 L 352.353 169.781 L 381.953 169.781 C 385.42 169.781 388.383 170.451 390.843 171.791 C 393.303 173.125 395.153 174.928 396.393 177.201 C 397.64 179.475 398.263 181.948 398.263 184.621 Z M 382.443 185.251 C 382.443 183.985 382.02 182.931 381.173 182.091 C 380.333 181.245 379.303 180.821 378.083 180.821 L 367.893 180.821 L 367.893 189.751 L 378.083 189.751 C 379.303 189.751 380.333 189.318 381.173 188.451 C 382.02 187.585 382.443 186.518 382.443 185.251 Z M 105.493 199.569 C 105.493 200.601 106.334 201.436 107.373 201.436 L 113.016 201.436 L 113.016 197.7 L 107.373 197.7 C 106.334 197.7 105.493 198.533 105.493 199.569 Z M 105.493 188.362 C 105.493 189.394 106.334 190.23 107.373 190.23 L 113.016 190.23 L 113.016 186.494 L 107.373 186.494 C 106.334 186.494 105.493 187.328 105.493 188.362 Z M 114.896 203.304 C 114.896 204.336 115.739 205.171 116.777 205.171 C 117.817 205.171 118.657 204.336 118.657 203.304 L 120.539 203.304 C 125.089 203.304 128.885 200.093 129.756 195.833 L 133.705 195.833 C 134.744 195.833 135.585 194.997 135.585 193.965 C 135.585 192.932 134.744 192.096 133.705 192.096 L 129.756 192.096 C 128.885 187.836 125.089 184.626 120.539 184.626 L 118.657 184.626 C 118.657 183.593 117.817 182.759 116.777 182.759 C 115.739 182.759 114.896 183.593 114.896 184.626 L 114.896 203.304 Z" style="fill: rgb(255, 255, 255);" transform="matrix(1, 0, 0, 1, 0, 1.4210854715202004e-14)"/>
</svg>